<svg width="1440" height="764" viewBox="0 0 1440 764" fill="none" xmlns="http://www.w3.org/2000/svg">
<g clip-path="url(#clip0_667_4334)">
<rect width="1440" height="764" fill="#F6F6F6"/>
<circle cx="-128" cy="559" r="457" fill="#003C55"/>
<circle cx="42.5" cy="42.5" r="42.5" transform="matrix(1 0 0 -1 118 252)" fill="#20B7DD"/>
<path fill-rule="evenodd" clip-rule="evenodd" d="M1150.75 -223.125C1154.45 -258.276 1161.63 -293.131 1172.28 -327.134L1522.87 -677.723C1556.87 -688.37 1591.72 -695.547 1626.88 -699.254L1150.75 -223.125ZM1315.75 222.888C1330.09 236.441 1345 249.05 1360.39 260.717L2110.72 -489.606C2099.05 -505.002 2086.44 -519.911 2072.89 -534.255L1315.75 222.888ZM1469.78 324.7C1451.11 316.59 1432.81 307.366 1414.98 297.027L2147.03 -435.021C2157.37 -417.188 2166.59 -398.886 2174.7 -380.216L1469.78 324.7ZM1536.76 348.618C1559.11 354.958 1581.8 359.816 1604.66 363.194L2213.19 -245.338C2209.82 -268.2 2204.96 -290.886 2198.62 -313.24L1536.76 348.618ZM1781.21 360.015C1751.01 365.597 1720.43 368.572 1689.81 368.937L2218.94 -160.186C2218.57 -129.573 2215.6 -98.9856 2210.01 -68.7853L1781.21 360.015ZM1916.27 315.852C1968.98 290.408 2018.38 255.825 2062.1 212.102C2105.82 168.379 2140.41 118.978 2165.85 66.272L1916.27 315.852ZM2026.05 -578.306L1271.69 176.045C1258.98 160.803 1247.24 145.021 1236.48 128.781L1978.78 -613.52C1995.02 -602.761 2010.8 -591.023 2026.05 -578.306ZM1203.26 71.104L1921.1 -646.738C1902.19 -656.104 1882.84 -664.284 1863.17 -671.279L1178.72 13.1675C1185.72 32.8439 1193.9 52.193 1203.26 71.104ZM1158.87 -57.8765C1153.92 -81.863 1150.63 -106.123 1148.99 -130.474L1719.53 -701.011C1743.88 -699.373 1768.14 -696.08 1792.12 -691.13L1158.87 -57.8765Z" fill="#20B7DD"/>
</g>
<defs>
<clipPath id="clip0_667_4334">
<rect width="1440" height="764" fill="white"/>
</clipPath>
</defs>
</svg>
