<svg width="555" height="419" viewBox="0 0 555 419" fill="none" xmlns="http://www.w3.org/2000/svg">
<g clip-path="url(#clip0_717_4377)">
<path d="M393.262 162.211H345.854V192.454H393.262V162.211Z" fill="#20B7DD"/>
<path d="M319.395 209.5H271.988V239.743H319.395V209.5Z" fill="#20B7DD"/>
<path d="M531.848 172.109V107.774H496.017V65.9843H471.762V107.774H435.931V172.109H416.086V27.4934H375.845V13.7467H322.374V0H269.455V13.7467H219.292V27.4934H175.743V171.559H152.591V107.224H116.76V65.4344H92.5052V107.224H56.6743V171.559H33.522V399.755H86.4415V318.924H122.824V399.755H265.045V305.727H326.784V399.755H412.779V400.304H465.698V319.474H502.08V400.304H555V172.109H531.848ZM52.5399 199.602H73.4873V216.098H52.5399V199.602ZM52.8156 245.791H73.7629V262.287H52.8156V245.791ZM74.0385 308.476H53.0912V291.98H74.0385V308.476ZM128.887 159.462H80.3778V149.564H128.887V159.462ZM128.887 145.165H80.3778V135.268H128.887V145.165ZM128.887 130.869H80.3778V120.971H128.887V130.869ZM135.778 199.602H156.725V216.098H135.778V199.602ZM136.054 245.791H157.001V262.287H136.054V245.791ZM157.277 308.476H136.329V291.98H157.277V308.476ZM242.995 280.983H204.408V263.937H242.995V280.983ZM242.995 232.045H204.408V214.999H242.995V232.045ZM242.995 183.106H204.408V166.06H242.995V183.106ZM242.995 134.168H204.408V117.122H242.995V134.168ZM242.995 85.2297H204.408V68.1837H242.995V85.2297ZM315.208 280.983H276.621V263.937H315.208V280.983ZM315.208 232.045H276.621V214.999H315.208V232.045ZM315.208 183.106H276.621V166.06H315.208V183.106ZM315.208 134.168H276.621V117.122H315.208V134.168ZM315.208 85.2297H276.621V68.1837H315.208V85.2297ZM387.421 280.983H348.834V263.937H387.421V280.983ZM387.421 232.045H348.834V214.999H387.421V232.045ZM387.421 183.106H348.834V166.06H387.421V183.106ZM387.421 134.168H348.834V117.122H387.421V134.168ZM387.421 85.2297H348.834V68.1837H387.421V85.2297ZM431.797 200.152H452.744V216.648H431.797V200.152ZM432.072 246.341H453.02V262.837H432.072V246.341ZM453.295 309.026H432.348V292.53H453.295V309.026ZM508.144 160.012H459.635V150.114H508.144V160.012ZM508.144 145.715H459.635V135.818H508.144V145.715ZM508.144 131.419H459.635V121.521H508.144V131.419ZM515.035 200.152H535.982V216.648H515.035V200.152ZM515.31 246.341H536.258V262.837H515.31V246.341ZM536.533 309.026H515.586V292.53H536.533V309.026Z" fill="#00C9F7" fill-opacity="0.1"/>
<path d="M66.1496 344.058C65.9954 346.233 65.754 348.666 65.3809 351.223L72.1202 343.767L72.1573 343.892C71.7452 342.098 71.0816 340.371 70.1861 338.761L70.2292 338.879L66.1496 344.058Z" fill="#20B7DD"/>
<path d="M66.1758 343.676L70.1277 338.66C69.2869 337.129 68.0708 335.837 66.593 334.903C66.5206 334.859 66.4478 334.819 66.375 334.779C66.3966 335.371 66.5001 338.85 66.1758 343.676Z" fill="#20B7DD"/>
<path d="M62.6102 363.344C62.4366 363.871 62.2573 364.389 62.0723 364.898L71.9973 359.093L72.0112 359.239C72.2185 358.336 72.3912 357.433 72.5293 356.531L62.6192 363.41L62.6102 363.344Z" fill="#20B7DD"/>
<path d="M63.9907 358.472L72.9295 351.118L72.9549 351.256C72.9865 348.824 72.7292 346.398 72.1885 344.027L65.3207 351.624C64.96 354.019 64.5167 356.301 63.9907 358.472Z" fill="#20B7DD"/>
<path d="M65.1674 351.48L54.4715 339.575L54.5288 339.441C53.5233 340.853 52.6635 342.363 51.9624 343.947L64.168 356.91C64.5862 355.018 64.9127 353.186 65.1674 351.48Z" fill="#20B7DD"/>
<path d="M51.8472 344.214L51.8476 344.214C51.8667 344.171 51.8833 344.123 51.9025 344.079L51.8472 344.214Z" fill="#20B7DD"/>
<path d="M51.2512 345.675L51.1968 345.81C51.2141 345.764 51.2338 345.721 51.2512 345.675Z" fill="#20B7DD"/>
<path d="M64.0974 357.226L51.8472 344.216C51.6402 344.689 51.4417 345.175 51.252 345.676L63.7724 358.602C63.8863 358.14 63.9946 357.682 64.0974 357.226Z" fill="#20B7DD"/>
<path d="M72.5557 356.357C72.7996 354.721 72.9325 353.07 72.9536 351.415L63.8939 358.868C63.5349 360.314 63.1399 361.703 62.709 363.037L72.5365 356.215L72.5557 356.357Z" fill="#20B7DD"/>
<path d="M49.6274 357.284L59.5435 370.189C60.3582 368.618 61.0778 367 61.6983 365.344L49.5987 352.667C49.4788 354.252 49.4655 355.843 49.5589 357.429L49.6274 357.284Z" fill="#20B7DD"/>
<path d="M66.1939 334.768L66.2828 334.728C64.1112 333.571 61.7602 333.695 59.5068 334.869L66.0013 343.668C66.3508 338.445 66.1963 334.82 66.1939 334.768Z" fill="#20B7DD"/>
<path d="M61.7508 365.761C61.1816 367.252 60.5314 368.71 59.8032 370.13L69.7777 364.983L69.7878 365.126C70.5392 363.859 71.1268 362.503 71.5366 361.089C71.695 360.533 71.8396 359.976 71.9704 359.416L61.927 365.29C61.8684 365.447 61.8105 365.606 61.7508 365.761Z" fill="#20B7DD"/>
<path d="M65.9745 344.057L59.3311 335.056L59.3934 334.928C57.492 336.025 55.858 337.529 54.6089 339.332L65.2176 351.139C65.5848 348.611 65.8225 346.207 65.9745 344.057Z" fill="#20B7DD"/>
<path d="M61.8071 365.053C62.5468 363.04 63.1772 360.99 63.6957 358.91L51.1442 345.951C50.8454 346.761 50.5709 347.603 50.3209 348.477C49.9739 349.731 49.7423 351.014 49.6289 352.309L61.7976 365.058L61.8071 365.053Z" fill="#20B7DD"/>
<path d="M74.6991 379.033C73.1896 380.61 71.448 382.331 69.5259 384.062L79.4836 382.608L79.4324 382.728C80.2622 381.083 80.8556 379.331 81.195 377.522L81.1527 377.64L74.6991 379.033Z" fill="#20B7DD"/>
<path d="M80.8954 372.264C80.8671 372.184 80.8369 372.107 80.8065 372.03C80.4443 372.5 78.3 375.245 74.9639 378.756L81.2153 377.406C81.5463 375.693 81.4363 373.923 80.8954 372.264Z" fill="#20B7DD"/>
<path d="M59.6423 391.635C59.1713 391.931 58.702 392.216 58.2344 392.49L69.5902 394.333L69.5078 394.454C70.2446 393.891 70.9548 393.306 71.6382 392.698L59.6067 391.692L59.6423 391.635Z" fill="#20B7DD"/>
<path d="M63.8208 388.761L75.4073 388.784L75.3389 388.906C76.9179 387.054 78.2714 385.021 79.371 382.851L69.2235 384.333C67.4146 385.948 65.6137 387.424 63.8208 388.761Z" fill="#20B7DD"/>
<path d="M59.9146 391.461L71.8457 392.459L71.7696 392.581C73.0038 391.476 74.1618 390.289 75.2357 389.028L63.4925 389.005C62.2919 389.89 61.0992 390.708 59.9146 391.461Z" fill="#20B7DD"/>
<path d="M45.3009 397.351C45.3854 397.266 45.4749 397.173 45.5631 397.083C47.9959 396.696 50.3733 396.019 52.6437 395.065L52.968 386.487C53.0642 386.269 53.1576 386.049 53.2484 385.828L52.9033 394.956C54.5352 394.265 56.124 393.476 57.6612 392.595L56.5532 376.65C56.6387 376.605 56.7247 376.561 56.8133 376.514L57.9199 392.438L57.9308 392.44C59.7872 391.361 61.584 390.183 63.3133 388.91L62.1068 373.219C62.1922 373.157 62.2774 373.096 62.363 373.032L63.5695 388.722C63.9522 388.439 64.329 388.155 64.6997 387.869L63.7044 371.985C63.7897 371.915 63.8748 371.845 63.9599 371.774L64.9559 387.671C66.4877 386.48 67.9104 385.276 69.1978 384.124L68.5717 368.151L68.7018 368.083C68.2572 368.199 67.8053 368.336 67.3495 368.486C68.2066 367.509 68.9775 366.461 69.6536 365.352L59.5837 370.55C58.8867 371.871 58.1027 373.144 57.2369 374.362C57.0569 374.531 56.8769 374.7 56.6996 374.877L56.7128 375.068C56.6306 375.176 56.5489 375.285 56.4657 375.391L56.4479 375.134C56.3208 375.264 56.1968 375.401 56.0711 375.535C57.3464 373.947 58.4655 372.24 59.4132 370.438L49.5697 357.628C49.6368 358.773 49.749 359.925 49.8933 361.069C48.9795 359.586 47.8695 358.234 46.5936 357.047L46.6711 357.146L44.3962 363.329C44.9236 365.445 45.4479 367.834 45.8853 370.38L49.9281 361.338C49.9465 361.479 49.9661 361.619 49.9855 361.76L45.9525 370.78C46.3515 373.169 46.6372 375.476 46.8096 377.702L51.6501 370.118C51.6778 370.227 51.7054 370.336 51.733 370.444L46.8403 378.11C46.9468 379.595 47.0017 381.038 47.0051 382.439L52.9222 374.652C52.9538 374.755 52.9846 374.854 53.0152 374.952L47.0356 382.822L47.0065 382.762C47.0048 383.317 46.9948 383.865 46.9764 384.405L53.6507 376.909C53.6862 377.014 53.7191 377.11 53.7495 377.198L46.9596 384.823C46.9526 384.991 46.9465 385.159 46.9379 385.325C46.8585 386.919 46.6921 388.506 46.4397 390.081L47.0838 389.431C46.9618 389.683 46.8429 389.932 46.7273 390.177L46.3608 390.548C46.3187 390.788 46.2708 391.024 46.2246 391.26C46.0894 391.557 45.9591 391.846 45.8337 392.128C45.9547 391.587 46.0676 391.043 46.164 390.494L32.833 381.346C36.311 390.222 42.8603 398.665 43.2796 399.201C43.62 398.567 43.9292 397.914 44.2132 397.248C44.2957 397.24 44.3782 397.232 44.4606 397.224C44.4266 397.306 44.3911 397.386 44.3564 397.467C44.3149 397.472 44.2727 397.478 44.2313 397.482C44.2636 397.491 44.3023 397.502 44.3375 397.512C44.1374 397.977 43.9302 398.435 43.7079 398.876C43.9988 398.615 44.442 398.203 44.9719 397.68C48.1066 398.478 56.5516 400.185 63.7825 397.663L52.7037 395.259C50.3328 396.261 47.8461 396.963 45.3009 397.351ZM53.0859 383.367L53.3516 383.099L53.3364 383.501L53.0707 383.77L53.0859 383.367Z" fill="#20B7DD"/>
<path d="M80.674 371.906L80.7677 371.932C79.8352 369.659 77.945 368.259 75.4593 367.729L74.835 378.638C78.4435 374.838 80.6425 371.948 80.674 371.906Z" fill="#20B7DD"/>
<path d="M57.4344 392.95C56.0429 393.736 54.6095 394.446 53.1406 395.076L64.1144 397.457L64.0306 397.574C65.4191 397.077 66.7389 396.406 67.9584 395.578C68.4361 395.25 68.9041 394.913 69.3623 394.565L57.8712 392.699C57.7255 392.783 57.5797 392.868 57.4344 392.95Z" fill="#20B7DD"/>
<path d="M69.4539 383.894C71.353 382.18 73.0735 380.48 74.5653 378.921L75.204 367.761L75.3339 367.702C73.1678 367.338 70.9476 367.457 68.833 368.05L69.4539 383.894Z" fill="#20B7DD"/>
<path d="M46.5069 356.969C45.2331 355.772 43.6759 354.918 41.981 354.485C41.8988 354.467 41.817 354.45 41.7354 354.435C41.9395 354.992 43.1158 358.268 44.3031 362.958L46.5069 356.969Z" fill="#20B7DD"/>
<path d="M45.7616 370.69L31.9007 362.666L31.9134 362.521C31.3948 364.174 31.0449 365.875 30.8691 367.598L46.4938 376.162C46.3053 374.234 46.0482 372.391 45.7616 370.69Z" fill="#20B7DD"/>
<path d="M30.8428 367.888L30.8433 367.889C30.848 367.841 30.849 367.79 30.8539 367.742L30.8428 367.888Z" fill="#20B7DD"/>
<path d="M30.7289 369.46L30.7188 369.607C30.7209 369.557 30.7266 369.51 30.7289 369.46Z" fill="#20B7DD"/>
<path d="M46.5249 376.484L30.8431 367.889C30.7928 368.402 30.7549 368.926 30.7295 369.461L46.6422 377.893C46.6076 377.42 46.5685 376.95 46.5249 376.484Z" fill="#20B7DD"/>
<path d="M46.7589 384.945L31.3237 376.619C31.7008 378.163 32.1811 379.681 32.7616 381.161L32.7819 381.002L46.2112 390.217C46.4993 388.472 46.6822 386.711 46.7589 384.945Z" fill="#20B7DD"/>
<path d="M41.5594 354.48L41.6316 354.415C39.2077 353.984 37.0104 354.827 35.231 356.638L44.1339 363.004C42.8481 357.929 41.5778 354.529 41.5594 354.48Z" fill="#20B7DD"/>
<path d="M44.2288 363.382L35.1216 356.87L35.1412 356.729C33.6729 358.359 32.5849 360.293 31.9556 362.392L45.7036 370.351C45.2694 367.833 44.7504 365.473 44.2288 363.382Z" fill="#20B7DD"/>
<path d="M46.7719 384.635C46.8518 382.493 46.8159 380.348 46.6644 378.21L30.7121 369.756C30.6788 370.618 30.6786 371.503 30.7118 372.412C30.7703 373.711 30.9475 375.003 31.2412 376.27L46.7646 384.643L46.7719 384.635Z" fill="#20B7DD"/>
<path d="M538.015 342.409C537.861 344.584 537.62 347.017 537.247 349.573L543.986 342.118L544.023 342.243C543.611 340.448 542.947 338.721 542.052 337.112L542.095 337.23L538.015 342.409Z" fill="#20B7DD"/>
<path d="M538.042 342.027L541.994 337.01C541.153 335.48 539.937 334.187 538.459 333.253C538.387 333.21 538.314 333.169 538.241 333.129C538.263 333.722 538.366 337.2 538.042 342.027Z" fill="#20B7DD"/>
<path d="M534.476 361.694C534.303 362.222 534.123 362.74 533.938 363.248L543.864 357.443L543.877 357.589C544.085 356.686 544.257 355.784 544.396 354.881L534.485 361.761L534.476 361.694Z" fill="#20B7DD"/>
<path d="M535.857 356.822L544.796 349.469L544.821 349.606C544.852 347.175 544.595 344.748 544.055 342.377L537.187 349.975C536.826 352.369 536.383 354.652 535.857 356.822Z" fill="#20B7DD"/>
<path d="M537.033 349.83L526.338 337.926L526.395 337.791C525.389 339.203 524.529 340.713 523.828 342.297L536.034 355.26C536.452 353.368 536.779 351.537 537.033 349.83Z" fill="#20B7DD"/>
<path d="M523.713 342.564L523.713 342.565C523.732 342.521 523.749 342.473 523.768 342.43L523.713 342.564Z" fill="#20B7DD"/>
<path d="M535.963 355.576L523.713 342.566C523.506 343.039 523.308 343.526 523.118 344.026L535.638 356.952C535.752 356.491 535.861 356.032 535.963 355.576Z" fill="#20B7DD"/>
<path d="M523.117 344.026L523.063 344.161C523.08 344.114 523.1 344.072 523.117 344.026Z" fill="#20B7DD"/>
<path d="M544.421 354.707C544.665 353.071 544.798 351.42 544.819 349.766L535.76 357.219C535.401 358.664 535.006 360.054 534.575 361.387L544.402 354.565L544.421 354.707Z" fill="#20B7DD"/>
<path d="M521.494 355.635L531.41 368.54C532.224 366.969 532.944 365.351 533.564 363.694L521.465 351.017C521.345 352.602 521.332 354.193 521.425 355.78L521.494 355.635Z" fill="#20B7DD"/>
<path d="M538.06 333.118L538.149 333.079C535.977 331.921 533.626 332.046 531.373 333.219L537.867 342.018C538.217 336.796 538.062 333.17 538.06 333.118Z" fill="#20B7DD"/>
<path d="M533.617 364.111C533.048 365.602 532.397 367.061 531.669 368.481L541.644 363.333L541.654 363.476C542.405 362.21 542.993 360.854 543.403 359.44C543.561 358.884 543.706 358.326 543.836 357.767L533.793 363.641C533.734 363.798 533.676 363.956 533.617 364.111Z" fill="#20B7DD"/>
<path d="M537.84 342.407L531.197 333.406L531.259 333.278C529.358 334.375 527.724 335.879 526.475 337.682L537.083 349.489C537.45 346.962 537.688 344.557 537.84 342.407Z" fill="#20B7DD"/>
<path d="M533.673 363.403C534.413 361.391 535.043 359.34 535.562 357.26L523.01 344.302C522.711 345.111 522.437 345.953 522.187 346.828C521.84 348.081 521.608 349.364 521.495 350.66L533.664 363.409L533.673 363.403Z" fill="#20B7DD"/>
<path d="M546.565 377.383C545.056 378.961 543.314 380.681 541.392 382.413L551.35 380.958L551.298 381.078C552.128 379.434 552.722 377.681 553.061 375.872L553.019 375.99L546.565 377.383Z" fill="#20B7DD"/>
<path d="M552.761 370.614C552.733 370.535 552.703 370.457 552.672 370.38C552.31 370.85 550.166 373.595 546.83 377.106L553.081 375.757C553.412 374.043 553.302 372.274 552.761 370.614Z" fill="#20B7DD"/>
<path d="M531.508 389.986C531.037 390.281 530.568 390.566 530.1 390.84L541.456 392.684L541.374 392.805C542.11 392.241 542.821 391.656 543.504 391.049L531.472 390.042L531.508 389.986Z" fill="#20B7DD"/>
<path d="M535.687 387.111L547.273 387.135L547.205 387.257C548.784 385.404 550.137 383.372 551.237 381.201L541.089 382.683C539.28 384.298 537.479 385.774 535.687 387.111Z" fill="#20B7DD"/>
<path d="M531.78 389.812L543.711 390.81L543.635 390.932C544.87 389.827 546.028 388.64 547.101 387.379L535.358 387.355C534.158 388.24 532.965 389.059 531.78 389.812Z" fill="#20B7DD"/>
<path d="M517.167 395.701C517.251 395.616 517.341 395.524 517.429 395.433C519.862 395.046 522.239 394.369 524.509 393.415L524.834 384.838C524.93 384.619 525.023 384.4 525.114 384.178L524.769 393.307C526.401 392.615 527.99 391.827 529.527 390.945L528.419 375C528.504 374.956 528.59 374.911 528.679 374.864L529.786 390.789L529.796 390.791C531.653 389.711 533.45 388.533 535.179 387.261L533.972 371.57C534.058 371.507 534.143 371.446 534.229 371.382L535.435 387.073C535.818 386.79 536.195 386.505 536.565 386.219L535.57 370.335C535.655 370.266 535.741 370.196 535.826 370.125L536.822 386.021C538.353 384.83 539.776 383.627 541.063 382.475L540.437 366.501L540.567 366.434C540.123 366.549 539.671 366.687 539.215 366.836C540.072 365.86 540.843 364.812 541.519 363.703L531.449 368.9C530.752 370.221 529.968 371.494 529.103 372.712C528.923 372.881 528.743 373.051 528.565 373.228L528.579 373.418C528.496 373.526 528.415 373.635 528.331 373.741L528.314 373.484C528.186 373.614 528.062 373.752 527.937 373.885C529.212 372.297 530.331 370.59 531.279 368.788L521.435 355.978C521.502 357.123 521.615 358.276 521.759 359.419C520.845 357.937 519.735 356.584 518.459 355.397L518.537 355.496L516.262 361.68C516.789 363.796 517.314 366.184 517.751 368.73L521.794 359.688C521.812 359.829 521.832 359.97 521.851 360.11L517.818 369.131C518.217 371.519 518.503 373.827 518.675 376.053L523.516 368.469C523.543 368.578 523.571 368.687 523.599 368.794L518.706 376.46C518.812 377.945 518.867 379.388 518.871 380.79L524.788 373.002C524.819 373.105 524.85 373.204 524.881 373.303L518.901 381.172L518.872 381.112C518.871 381.667 518.86 382.215 518.842 382.756L525.516 375.26C525.552 375.364 525.585 375.46 525.615 375.548L518.825 383.174C518.818 383.341 518.812 383.51 518.804 383.676C518.724 385.269 518.558 386.857 518.305 388.432L518.949 387.781C518.827 388.034 518.709 388.282 518.593 388.528L518.227 388.898C518.184 389.139 518.137 389.374 518.09 389.611C517.955 389.907 517.825 390.196 517.699 390.478C517.82 389.937 517.933 389.393 518.03 388.845L504.699 379.697C508.177 388.572 514.726 397.015 515.145 397.551C515.486 396.917 515.795 396.264 516.079 395.598C516.161 395.591 516.244 395.583 516.326 395.574C516.292 395.656 516.257 395.737 516.222 395.818C516.181 395.822 516.138 395.829 516.097 395.833C516.129 395.842 516.168 395.852 516.203 395.862C516.003 396.327 515.796 396.785 515.574 397.227C515.865 396.966 516.308 396.553 516.838 396.03C519.972 396.828 528.417 398.535 535.648 396.014L524.569 393.61C522.199 394.611 519.712 395.314 517.167 395.701ZM524.952 381.718L525.217 381.45L525.202 381.852L524.936 382.12L524.952 381.718Z" fill="#20B7DD"/>
<path d="M552.54 370.257L552.633 370.283C551.701 368.01 549.811 366.609 547.325 366.08L546.701 376.988C550.309 373.189 552.508 370.298 552.54 370.257Z" fill="#20B7DD"/>
<path d="M529.3 391.3C527.909 392.086 526.475 392.796 525.007 393.426L535.98 395.808L535.897 395.924C537.285 395.427 538.605 394.756 539.824 393.928C540.302 393.601 540.77 393.263 541.228 392.915L529.737 391.05C529.592 391.134 529.446 391.218 529.3 391.3Z" fill="#20B7DD"/>
<path d="M541.32 382.244C543.219 380.531 544.939 378.83 546.431 377.271L547.07 366.112L547.2 366.053C545.034 365.688 542.814 365.807 540.699 366.401L541.32 382.244Z" fill="#20B7DD"/>
<path d="M518.373 355.319C517.099 354.123 515.542 353.268 513.847 352.835C513.764 352.817 513.683 352.801 513.601 352.785C513.805 353.342 514.981 356.618 516.169 361.308L518.373 355.319Z" fill="#20B7DD"/>
<path d="M517.628 369.04L503.767 361.017L503.779 360.871C503.261 362.524 502.911 364.225 502.735 365.948L518.36 374.513C518.171 372.585 517.914 370.742 517.628 369.04Z" fill="#20B7DD"/>
<path d="M502.595 367.811L502.585 367.957C502.587 367.907 502.593 367.86 502.595 367.811Z" fill="#20B7DD"/>
<path d="M502.708 366.239L502.709 366.239C502.714 366.191 502.715 366.14 502.72 366.092L502.708 366.239Z" fill="#20B7DD"/>
<path d="M518.391 374.835L502.709 366.239C502.659 366.753 502.621 367.277 502.595 367.811L518.508 376.244C518.473 375.77 518.434 375.3 518.391 374.835Z" fill="#20B7DD"/>
<path d="M518.625 383.295L503.189 374.97C503.567 376.514 504.047 378.031 504.627 379.511L504.648 379.352L518.077 388.568C518.365 386.823 518.548 385.062 518.625 383.295Z" fill="#20B7DD"/>
<path d="M513.425 352.831L513.498 352.766C511.074 352.335 508.876 353.178 507.097 354.988L516 361.354C514.714 356.28 513.444 352.879 513.425 352.831Z" fill="#20B7DD"/>
<path d="M516.095 361.732L506.988 355.22L507.007 355.079C505.539 356.709 504.451 358.643 503.822 360.743L517.57 368.701C517.135 366.184 516.616 363.824 516.095 361.732Z" fill="#20B7DD"/>
<path d="M518.638 382.985C518.718 380.843 518.682 378.698 518.53 376.56L502.578 368.107C502.545 368.968 502.545 369.854 502.578 370.763C502.636 372.062 502.813 373.353 503.107 374.62L518.631 382.993L518.638 382.985Z" fill="#20B7DD"/>
<path d="M33.522 399.755H555V407.197C555 410.328 553.753 413.33 551.534 415.543C549.315 417.757 546.306 419 543.168 419H45.3542C42.2161 419 39.2065 417.757 36.9876 415.543C34.7686 413.33 33.522 410.328 33.522 407.197V399.755Z" fill="#2F2E41"/>
<path d="M555 393.706H33.522V404.154H555V393.706Z" fill="#3F3D56"/>
<path d="M437.664 36.277L443.653 40.0655L440.017 33.4706C441.046 32.6509 442.321 32.1971 443.638 32.1812C443.67 32.1812 443.703 32.1815 443.735 32.182C444.151 32.1887 444.567 32.158 444.977 32.0904L447.007 33.3742L446.137 31.7962C447.575 31.2959 448.818 30.3551 449.688 29.1082L453.32 31.4062L451.025 27.244C453.15 24.7002 456.013 23.1404 459.164 23.1404C462.942 23.1404 466.307 25.3815 468.48 28.8733C469.122 29.918 470.03 30.7747 471.111 31.3563C472.193 31.938 473.409 32.2238 474.637 32.1849C474.705 32.1824 474.772 32.1812 474.84 32.1812C479.011 32.1812 482.392 36.8979 482.392 42.7163C482.392 48.5347 479.011 53.2514 474.84 53.2514C473.923 53.248 473.021 53.0226 472.21 52.5946C470.79 51.9063 469.238 51.534 467.66 51.5032C466.082 51.4724 464.516 51.784 463.07 52.4163C461.849 52.9638 460.526 53.2483 459.187 53.2514C457.848 53.2545 456.523 52.9761 455.3 52.4343C453.865 51.814 452.314 51.5085 450.751 51.5387C449.188 51.5688 447.65 51.9338 446.241 52.609C445.437 53.0278 444.545 53.2482 443.638 53.2514C439.468 53.2514 436.087 48.5347 436.087 42.7163C436.063 40.4719 436.605 38.2575 437.664 36.277Z" fill="#00C9F7" fill-opacity="0.1"/>
<path d="M132.959 67.2181L136.768 69.628L134.455 65.4328C135.11 64.9114 135.921 64.6227 136.759 64.6126C136.78 64.6126 136.8 64.6128 136.82 64.6131C137.085 64.6174 137.35 64.5979 137.611 64.5548L138.902 65.3715L138.349 64.3677C139.263 64.0495 140.054 63.451 140.607 62.6578L142.918 64.1196L141.458 61.4719C142.073 60.6809 142.857 60.0363 143.752 59.5848C144.648 59.1333 145.633 58.8863 146.636 58.8615C149.039 58.8615 151.179 60.2871 152.561 62.5084C152.97 63.173 153.547 63.7179 154.235 64.0879C154.923 64.4579 155.697 64.6397 156.478 64.615C156.521 64.6134 156.564 64.6126 156.607 64.6126C159.26 64.6126 161.411 67.613 161.411 71.3142C161.411 75.0154 159.26 78.0159 156.607 78.0159C156.024 78.0137 155.45 77.8703 154.934 77.598C154.031 77.1602 153.044 76.9233 152.04 76.9038C151.036 76.8842 150.04 77.0824 149.12 77.4846C148.343 77.8329 147.502 78.0139 146.65 78.0158C145.798 78.0178 144.956 77.8407 144.177 77.496C143.265 77.1015 142.278 76.9072 141.284 76.9263C140.29 76.9455 139.311 77.1777 138.415 77.6072C137.904 77.8736 137.336 78.0138 136.759 78.0159C134.106 78.0159 131.956 75.0154 131.956 71.3142C131.94 69.8865 132.285 68.4779 132.959 67.2181Z" fill="#00C9F7" fill-opacity="0.1"/>
<path d="M30.4269 80.137L34.2367 82.5469L31.9236 78.3517C32.5787 77.8303 33.3894 77.5417 34.2274 77.5315C34.2479 77.5315 34.2683 77.5317 34.2887 77.532C34.5534 77.5363 34.818 77.5168 35.0792 77.4738L36.3703 78.2904L35.8168 77.2866C36.7316 76.9684 37.5222 76.3699 38.0756 75.5767L40.3865 77.0385L38.9265 74.3908C39.5413 73.5998 40.3249 72.9552 41.2204 72.5037C42.1159 72.0522 43.1009 71.8052 44.104 71.7804C46.5071 71.7804 48.6477 73.2061 50.0297 75.4273C50.4382 76.0919 51.0157 76.6368 51.7036 77.0068C52.3915 77.3768 53.1653 77.5586 53.9465 77.5339C53.9894 77.5323 54.0325 77.5315 54.0757 77.5315C56.7286 77.5315 58.8793 80.5319 58.8793 84.2331C58.8793 87.9343 56.7286 90.9348 54.0757 90.9348C53.4923 90.9326 52.9181 90.7892 52.4025 90.5169C51.4995 90.0791 50.5119 89.8422 49.508 89.8227C48.5041 89.8031 47.508 90.0013 46.5885 90.4035C45.8116 90.7518 44.9699 90.9328 44.1182 90.9347C43.2665 90.9367 42.4239 90.7596 41.6455 90.4149C40.7331 90.0204 39.7463 89.8261 38.7521 89.8452C37.7578 89.8644 36.7793 90.0966 35.8829 90.5261C35.3718 90.7925 34.8041 90.9327 34.2274 90.9348C31.5745 90.9348 29.4238 87.9343 29.4238 84.2331C29.4084 82.8054 29.7533 81.3968 30.4269 80.137Z" fill="#00C9F7" fill-opacity="0.1"/>
<path d="M167.975 328.197L167.31 328.86C167.31 328.86 167.532 336.162 167.754 337.711C167.975 339.259 168.863 341.914 168.197 343.906C167.532 345.897 167.31 347.446 167.532 347.667C167.754 347.888 167.31 348.773 167.31 348.773L169.085 347.667L171.968 341.029L170.637 333.949L167.975 328.197Z" fill="#20B7DD"/>
<path opacity="0.1" d="M167.975 328.197L167.31 328.86C167.31 328.86 167.532 336.162 167.754 337.711C167.975 339.259 168.863 341.914 168.197 343.906C167.532 345.897 167.31 347.446 167.532 347.667C167.754 347.888 167.31 348.773 167.31 348.773L169.085 347.667L171.968 341.029L170.637 333.949L167.975 328.197Z" fill="#0A1029"/>
<path d="M179.731 397.006C179.731 397.006 179.731 394.572 179.287 394.13C178.844 393.687 178.178 392.138 177.291 392.138C176.404 392.138 173.299 393.023 173.299 393.245C173.324 393.935 173.171 394.621 172.855 395.236C172.411 395.9 169.972 398.555 172.411 398.997C173.223 399.13 174.052 399.101 174.852 398.911C175.651 398.721 176.405 398.374 177.069 397.891C177.291 397.67 178.178 397.448 178.4 397.67C178.622 397.891 179.731 397.006 179.731 397.006Z" fill="#20B7DD"/>
<path d="M185.941 393.023L187.272 395.457C187.272 395.457 187.716 397.67 188.381 397.891H189.047C189.047 397.891 189.712 400.325 191.265 400.103C192.817 399.882 194.592 398.997 194.592 398.555C194.592 398.112 194.592 396.785 193.926 396.342C192.993 395.582 192.105 394.769 191.265 393.908L190.156 392.802L185.941 393.023Z" fill="#20B7DD"/>
<path d="M168.919 311.977C168.492 312.195 168.124 312.511 167.845 312.9C167.566 313.289 167.385 313.739 167.317 314.212C167.193 315.792 168.759 317.28 168.255 318.783C167.969 319.636 167.079 320.189 166.822 321.051C166.687 321.739 166.789 322.452 167.11 323.076C167.46 323.931 167.886 324.753 168.384 325.532C169.319 326.996 170.535 328.385 170.785 330.104C170.855 330.404 170.852 330.717 170.776 331.016C170.701 331.315 170.556 331.592 170.353 331.824C170.803 331.484 171.318 331.24 171.866 331.106C174.133 330.35 176.239 329.18 178.077 327.655C178.744 327.187 179.247 326.521 179.513 325.751C179.851 324.392 178.817 323.032 178.916 321.635C178.98 320.741 179.497 319.952 179.789 319.105C180.044 318.261 180.125 317.376 180.028 316.5C179.931 315.625 179.657 314.778 179.224 314.011C178.865 313.269 178.358 312.608 177.735 312.067C177.112 311.526 176.385 311.117 175.598 310.866C174.388 310.585 173.126 310.621 171.934 310.971C170.893 311.187 169.881 311.524 168.919 311.977Z" fill="#2F2E41"/>
<path d="M170.168 324.246C170.656 323.341 171.38 322.583 172.262 322.052C173.145 321.521 174.154 321.236 175.184 321.227C178.733 321.227 178.068 321.006 178.068 321.006L176.959 325.431L174.741 327.644L170.168 324.246Z" fill="#20B7DD"/>
<path d="M171.081 319.568C171.081 319.568 173.077 322.887 171.746 324.214C170.416 325.542 171.081 326.869 171.303 327.091C171.525 327.312 177.735 327.754 177.735 327.754L177.957 324.657L178.622 322.002C178.622 322.002 175.073 321.338 175.517 319.789C175.961 318.24 171.081 319.568 171.081 319.568Z" fill="#FBBEBE"/>
<path opacity="0.1" d="M171.081 319.568C171.081 319.568 173.077 322.887 171.746 324.214C170.416 325.542 171.081 326.869 171.303 327.091C171.525 327.312 177.735 327.754 177.735 327.754L177.957 324.657L178.622 322.002C178.622 322.002 175.073 321.338 175.517 319.789C175.961 318.24 171.081 319.568 171.081 319.568Z" fill="#0A1029"/>
<path d="M186.607 350.986C186.37 351.745 186.073 352.485 185.72 353.198C185.498 353.419 184.833 351.649 184.833 351.649L185.498 350.101L186.607 350.986Z" fill="#FBBEBE"/>
<path d="M184.056 340.919L184.943 346.008H171.635L172.301 340.919H184.056Z" fill="#FBBEBE"/>
<path d="M173.52 321.338C175.848 321.338 177.735 319.456 177.735 317.134C177.735 314.813 175.848 312.93 173.52 312.93C171.193 312.93 169.306 314.813 169.306 317.134C169.306 319.456 171.193 321.338 173.52 321.338Z" fill="#FBBEBE"/>
<path d="M174.408 325.763C174.408 325.763 171.968 325.984 171.968 325.542C171.968 325.099 171.746 323.772 171.303 323.993C170.859 324.214 167.976 324.435 168.197 325.099C168.419 325.763 168.863 327.09 168.419 327.09C168.228 327.13 168.046 327.207 167.885 327.318C167.724 327.43 167.588 327.573 167.484 327.738C167.38 327.904 167.311 328.089 167.282 328.282C167.252 328.474 167.261 328.671 167.31 328.86C167.532 329.967 169.972 336.604 169.972 336.604C169.972 336.604 170.194 338.817 170.859 339.481C171.13 339.829 171.277 340.257 171.277 340.697C171.277 341.138 171.13 341.566 170.859 341.914C170.416 342.357 171.968 342.799 172.634 343.684C173.299 344.569 178.401 343.906 178.622 343.684C178.844 343.463 184.167 343.463 184.611 343.021C185.055 342.578 184.389 341.251 184.389 341.251C184.389 341.251 184.167 339.259 184.389 338.596C184.611 337.932 183.502 327.091 182.837 326.427C182.171 325.763 184.833 323.772 184.833 323.772C184.833 323.772 184.389 322.002 181.506 321.78C181.506 321.78 180.619 320.453 179.731 320.453C178.844 320.453 176.918 321.482 176.918 321.482C176.918 321.482 176.404 324.436 175.739 324.657C175.213 324.914 174.756 325.293 174.408 325.763Z" fill="#20B7DD"/>
<path d="M183.28 323.108L184.833 323.772C184.833 323.772 189.269 337.489 188.825 340.144C188.381 342.799 187.272 351.871 186.607 351.871C185.942 351.871 184.611 350.543 184.611 350.543V348.331C184.611 347.888 183.945 346.561 184.389 346.561C184.833 346.561 185.498 346.118 185.054 345.676C184.611 345.233 184.167 344.569 184.611 343.906C185.054 343.242 185.276 343.021 185.054 342.357C184.833 341.693 184.389 341.029 184.833 340.587C185.276 340.144 183.724 337.932 183.724 337.932L181.284 328.197L181.727 324.214L183.28 323.108Z" fill="#20B7DD"/>
<path d="M184.167 344.127C184.167 344.127 175.739 343.463 174.63 343.463C173.521 343.463 171.033 342.421 171.033 342.421C171.033 342.421 164.649 348.773 166.867 359.172C169.085 369.571 169.528 382.403 170.859 386.165C171.763 388.846 172.504 391.58 173.077 394.351C173.077 394.351 175.295 390.368 179.509 394.793C179.509 394.793 179.953 391.475 179.288 390.147C178.622 388.82 177.735 381.74 177.735 381.74C177.735 381.74 176.182 370.456 176.182 369.128C176.182 367.801 175.295 356.517 175.517 356.296C175.739 356.074 176.848 364.924 177.07 366.473C177.291 368.022 177.957 379.969 178.622 381.297C179.288 382.624 182.393 393.245 184.167 393.908C185.942 394.572 191.931 393.687 191.709 393.245C191.487 392.802 189.934 390.368 189.491 389.705L187.716 387.05L183.502 372.668L185.498 355.189C185.498 355.189 186.607 343.906 184.167 344.127Z" fill="#2F2E41"/>
<path d="M176.088 316.581H170.683C170.454 316.581 170.232 316.499 170.058 316.351C169.884 316.202 169.768 315.997 169.732 315.771L169.195 312.377H177.624L176.87 315.948C176.833 316.127 176.734 316.287 176.592 316.403C176.449 316.518 176.271 316.581 176.088 316.581Z" fill="#2F2E41"/>
<path d="M454.62 315.534H463.147V327.685C462.027 327.685 460.919 327.465 459.884 327.037C458.849 326.61 457.909 325.983 457.118 325.193C456.326 324.403 455.698 323.466 455.269 322.434C454.841 321.402 454.62 320.296 454.62 319.179V315.534Z" fill="#2F2E41"/>
<path d="M449.646 386.718L449.037 389.756H453.3L453.503 386.718H449.646Z" fill="#FBBEBE"/>
<path d="M449.646 389.149C449.646 389.149 448.834 388.541 448.428 388.946C448.022 389.351 446.601 397.249 446.398 397.452C446.195 397.655 440.104 400.692 441.525 400.895C442.946 401.097 448.428 401.3 449.24 400.895C450.052 400.49 452.285 396.642 452.285 396.642V400.085H452.691C452.691 400.085 453.097 396.439 454.113 395.427C455.128 394.414 453.3 390.971 453.3 390.971C453.3 390.971 453.707 388.744 453.504 388.744C453.3 388.744 449.646 389.149 449.646 389.149Z" fill="#20B7DD"/>
<path d="M462.233 384.592L461.624 387.63H465.888L466.091 384.592H462.233Z" fill="#FBBEBE"/>
<path d="M457.361 364.847C457.361 364.847 459.391 370.922 459.797 371.53C460.203 372.137 461.625 383.478 461.625 383.478C461.625 383.478 460.203 385.706 462.031 385.909C463.858 386.111 463.046 385.503 464.264 385.909C464.595 386.033 464.951 386.08 465.303 386.045C465.655 386.01 465.994 385.894 466.294 385.706C466.294 385.706 466.903 384.491 466.497 384.086C466.091 383.681 466.903 373.15 466.903 373.15L465.685 369.505L464.67 357.961C464.67 357.961 465.888 354.923 465.279 354.113C464.67 353.303 462.64 354.721 462.64 354.721L457.361 364.847Z" fill="#2F2E41"/>
<path d="M454.722 349.05C454.722 349.05 454.113 355.531 453.707 355.936C453.3 356.341 448.834 367.682 448.834 367.682C448.834 367.682 447.616 369.099 448.022 374.365C448.428 379.63 449.443 384.896 449.443 384.896C449.443 384.896 448.631 387.934 450.052 387.934C451.473 387.934 452.082 387.124 452.691 387.731C453.3 388.339 453.707 387.731 453.91 387.326C454.113 386.921 454.925 385.503 454.925 385.098C454.925 384.693 455.737 374.365 455.737 374.365C455.737 374.365 462.437 359.581 463.046 358.771C463.655 357.961 467.106 353.506 466.903 350.468L454.722 349.05Z" fill="#2F2E41"/>
<path d="M459.797 321.71C462.152 321.71 464.061 319.806 464.061 317.457C464.061 315.109 462.152 313.205 459.797 313.205C457.443 313.205 455.534 315.109 455.534 317.457C455.534 319.806 457.443 321.71 459.797 321.71Z" fill="#FBBEBE"/>
<path d="M458.985 321.103C458.985 321.103 460.609 324.748 460.812 325.761C461.015 326.773 464.873 323.736 464.873 323.736C464.873 323.736 462.843 320.293 463.452 318.673L458.985 321.103Z" fill="#FBBEBE"/>
<path d="M465.482 323.128C465.482 323.128 462.437 320.9 460.203 325.558C457.97 330.216 457.361 330.014 457.361 330.014C457.361 330.014 454.722 330.824 455.534 336.494C456.346 342.165 452.895 349.658 454.316 350.063C455.737 350.468 468.933 352.696 468.933 351.075C468.933 349.455 467.715 343.177 468.73 339.329C469.746 335.482 467.309 322.115 465.482 323.128Z" fill="#3F3D56"/>
<path d="M462.437 324.141C462.437 324.141 460 327.786 460.203 330.621C460.406 333.456 460.406 335.279 460.406 335.279C460.406 335.279 456.346 354.721 457.158 354.721C457.97 354.721 460.406 355.733 460.609 355.126C460.812 354.518 465.888 342.165 465.888 342.165C465.888 342.165 467.106 329.811 465.685 326.976C464.264 324.141 462.437 324.141 462.437 324.141Z" fill="#3F3D56"/>
<path d="M457.564 354.113C457.564 354.113 455.534 360.999 458.376 361.201C461.219 361.404 459.594 354.518 459.594 354.518L457.564 354.113Z" fill="#FBBEBE"/>
<path d="M462.968 386.052C462.968 386.052 462.257 385.52 461.901 385.875C461.545 386.23 460.301 393.146 460.123 393.324C459.945 393.501 454.611 396.161 455.856 396.339C457.101 396.516 461.901 396.693 462.612 396.339C463.323 395.984 465.279 392.614 465.279 392.614V395.629H465.635C465.635 395.629 465.99 392.437 466.879 391.55C467.768 390.664 466.168 387.649 466.168 387.649C466.168 387.649 466.524 385.698 466.346 385.698C466.168 385.698 462.968 386.052 462.968 386.052Z" fill="#20B7DD"/>
<path d="M457.69 314.671C457.825 314.506 458.002 314.38 458.203 314.308C458.391 314.274 458.584 314.291 458.763 314.356C460.036 314.727 461.141 315.527 461.886 316.621C462.031 316.9 462.249 317.135 462.516 317.301C462.69 317.353 462.86 317.417 463.024 317.494C463.499 317.807 463.216 318.532 462.943 319.03C462.245 320.311 461.922 321.762 462.012 323.218C462.007 323.471 462.081 323.719 462.226 323.927C462.456 324.139 462.756 324.259 463.07 324.263C464.055 324.387 465.048 324.44 466.041 324.422C467.012 324.404 468.091 324.267 468.72 323.528C469.397 322.734 469.291 321.518 468.851 320.573C468.41 319.628 467.694 318.838 467.186 317.928C466.704 316.966 466.323 315.956 466.05 314.916C465.698 313.588 465.131 312.326 464.371 311.18C463.988 310.61 463.491 310.124 462.911 309.753C462.331 309.382 461.681 309.134 461.001 309.025C459.156 308.82 457.455 309.952 455.973 311.066C454.308 312.316 452.537 313.863 452.403 315.938C452.295 317.618 453.307 319.139 453.835 320.738C454.651 323.207 454.309 325.889 453.959 328.465C455.462 327.567 457.163 326.319 457.064 324.574C456.998 323.397 456.107 322.457 455.553 321.416C454.028 318.551 455.766 316.631 457.69 314.671Z" fill="#2F2E41"/>
<path d="M517.646 335.369C518.936 333.123 519.603 330.574 519.577 327.985C519.577 321.312 515.434 315.902 510.324 315.902C505.213 315.902 501.071 321.312 501.071 327.985C501.045 330.574 501.712 333.123 503.002 335.369C501.736 337.626 501.071 340.168 501.071 342.754C501.071 345.339 501.736 347.882 503.002 350.138C501.736 352.394 501.071 354.936 501.071 357.522C501.071 360.108 501.736 362.65 503.002 364.906C501.736 367.162 501.071 369.704 501.071 372.29C501.071 374.876 501.736 377.418 503.002 379.674C501.712 381.921 501.045 384.47 501.071 387.058C501.071 393.732 505.213 399.142 510.324 399.142C515.434 399.142 519.577 393.732 519.577 387.058C519.603 384.47 518.936 381.921 517.646 379.674C518.912 377.418 519.577 374.876 519.577 372.29C519.577 369.704 518.912 367.162 517.646 364.906C518.912 362.65 519.577 360.108 519.577 357.522C519.577 354.936 518.912 352.394 517.646 350.138C518.912 347.882 519.577 345.339 519.577 342.754C519.577 340.168 518.912 337.626 517.646 335.369Z" fill="#3F3D56"/>
<path d="M510.324 325.3C515.434 325.3 519.577 319.89 519.577 313.217C519.577 306.544 515.434 301.134 510.324 301.134C505.213 301.134 501.071 306.544 501.071 313.217C501.071 319.89 505.213 325.3 510.324 325.3Z" fill="#3F3D56"/>
<path d="M510.324 310.532C515.434 310.532 519.577 305.122 519.577 298.449C519.577 291.776 515.434 286.366 510.324 286.366C505.213 286.366 501.071 291.776 501.071 298.449C501.071 305.122 505.213 310.532 510.324 310.532Z" fill="#3F3D56"/>
<path d="M544.963 197.385C546.228 195.78 547.379 194.089 548.409 192.325L524.096 188.342L550.392 188.537C552.914 183.062 554.29 177.132 554.436 171.108C554.581 165.084 553.493 159.094 551.238 153.505L515.959 171.76L548.495 147.904C545.446 142.65 541.346 138.078 536.45 134.473C531.553 130.869 525.965 128.308 520.033 126.952C514.101 125.596 507.952 125.472 501.971 126.59C495.989 127.707 490.302 130.041 485.264 133.446C480.226 136.851 475.945 141.255 472.687 146.383C469.43 151.51 467.265 157.252 466.33 163.25C465.394 169.249 465.706 175.375 467.247 181.248C468.788 187.12 471.525 192.614 475.288 197.385C473.317 199.884 471.622 202.587 470.233 205.448L501.794 221.804L468.141 210.538C465.778 217.505 465.194 224.951 466.442 232.2C467.69 239.45 470.73 246.274 475.288 252.056C470.145 258.578 466.946 266.411 466.057 274.661C465.167 282.911 466.622 291.243 470.256 298.707C473.89 306.17 479.557 312.463 486.607 316.865C493.658 321.268 501.808 323.603 510.126 323.603C518.444 323.603 526.594 321.268 533.644 316.865C540.694 312.463 546.361 306.17 549.995 298.707C553.629 291.243 555.084 282.911 554.195 274.661C553.305 266.411 550.106 258.578 544.963 252.056C551.108 244.263 554.449 234.636 554.449 224.721C554.449 214.806 551.108 205.178 544.963 197.385Z" fill="#00C9F7" fill-opacity="0.1"/>
<path d="M465.802 224.721C465.787 234.638 469.129 244.27 475.287 252.056C470.145 258.578 466.946 266.411 466.056 274.661C465.167 282.911 466.622 291.243 470.256 298.707C473.89 306.17 479.556 312.463 486.607 316.865C493.657 321.268 501.807 323.603 510.125 323.603C518.443 323.603 526.593 321.268 533.644 316.865C540.694 312.463 546.36 306.17 549.995 298.707C553.629 291.243 555.084 282.911 554.194 274.661C553.305 266.411 550.106 258.578 544.963 252.056C550.904 244.534 465.802 219.758 465.802 224.721Z" fill="#00C9F7" fill-opacity="0.1"/>
<path d="M544.963 197.385C546.228 195.78 547.379 194.089 548.409 192.325L524.096 188.342L550.392 188.537C552.914 183.062 554.29 177.132 554.436 171.108C554.581 165.084 553.493 159.094 551.238 153.505L515.959 171.76L548.495 147.904C545.446 142.65 541.346 138.078 536.45 134.473C531.553 130.869 525.965 128.308 520.033 126.952C514.101 125.596 507.952 125.472 501.971 126.59C495.989 127.707 490.302 130.041 485.264 133.446C480.226 136.851 475.945 141.255 472.687 146.383C469.43 151.51 467.265 157.252 466.33 163.25C465.394 169.249 465.706 175.375 467.247 181.248C468.788 187.12 471.525 192.614 475.288 197.385C473.317 199.884 471.622 202.587 470.233 205.448L501.794 221.804L468.141 210.538C465.778 217.505 465.194 224.951 466.442 232.2C467.69 239.45 470.73 246.274 475.288 252.056C470.145 258.578 466.946 266.411 466.057 274.661C465.167 282.911 466.622 291.243 470.256 298.707C473.89 306.17 479.557 312.463 486.607 316.865C493.658 321.268 501.808 323.603 510.126 323.603C518.444 323.603 526.594 321.268 533.644 316.865C540.694 312.463 546.361 306.17 549.995 298.707C553.629 291.243 555.084 282.911 554.195 274.661C553.305 266.411 550.106 258.578 544.963 252.056C551.108 244.263 554.449 234.636 554.449 224.721C554.449 214.806 551.108 205.178 544.963 197.385Z" fill="#57B894"/>
<path opacity="0.1" d="M465.802 224.721C465.787 234.638 469.129 244.27 475.287 252.056C470.145 258.578 466.946 266.411 466.056 274.661C465.167 282.911 466.622 291.243 470.256 298.707C473.89 306.17 479.556 312.463 486.607 316.865C493.657 321.268 501.807 323.603 510.125 323.603C518.443 323.603 526.593 321.268 533.644 316.865C540.694 312.463 546.36 306.17 549.995 298.707C553.629 291.243 555.084 282.911 554.194 274.661C553.305 266.411 550.106 258.578 544.963 252.056C550.904 244.534 465.802 219.758 465.802 224.721Z" fill="#0A1029"/>
<path d="M51.8435 335.369C53.1337 333.123 53.8004 330.574 53.7748 327.985C53.7748 321.312 49.632 315.902 44.5216 315.902C39.4111 315.902 35.2683 321.312 35.2683 327.985C35.2428 330.574 35.9094 333.123 37.1996 335.369C35.9333 337.626 35.2683 340.168 35.2683 342.754C35.2683 345.339 35.9333 347.882 37.1996 350.138C35.9333 352.394 35.2683 354.936 35.2683 357.522C35.2683 360.108 35.9333 362.65 37.1996 364.906C35.9333 367.162 35.2683 369.704 35.2683 372.29C35.2683 374.876 35.9333 377.418 37.1996 379.674C35.9094 381.921 35.2428 384.47 35.2683 387.058C35.2683 393.732 39.4111 399.142 44.5216 399.142C49.632 399.142 53.7748 393.732 53.7748 387.058C53.8004 384.47 53.1337 381.921 51.8435 379.674C53.1098 377.418 53.7748 374.876 53.7748 372.29C53.7748 369.704 53.1098 367.162 51.8435 364.906C53.1098 362.65 53.7748 360.108 53.7748 357.522C53.7748 354.936 53.1098 352.394 51.8435 350.138C53.1098 347.882 53.7748 345.339 53.7748 342.754C53.7748 340.168 53.1098 337.626 51.8435 335.369Z" fill="#3F3D56"/>
<path d="M44.5218 325.3C49.6323 325.3 53.7751 319.89 53.7751 313.217C53.7751 306.544 49.6323 301.134 44.5218 301.134C39.4114 301.134 35.2686 306.544 35.2686 313.217C35.2686 319.89 39.4114 325.3 44.5218 325.3Z" fill="#3F3D56"/>
<path d="M44.5218 310.532C49.6323 310.532 53.7751 305.122 53.7751 298.449C53.7751 291.776 49.6323 286.366 44.5218 286.366C39.4114 286.366 35.2686 291.776 35.2686 298.449C35.2686 305.122 39.4114 310.532 44.5218 310.532Z" fill="#3F3D56"/>
<path d="M79.1612 197.385C80.4253 195.78 81.5768 194.089 82.6072 192.325L58.2935 188.342L84.5894 188.537C87.112 183.062 88.4882 177.132 88.6337 171.108C88.7792 165.084 87.6911 159.094 85.4359 153.505L50.1567 171.76L82.6923 147.904C79.6442 142.65 75.5441 138.078 70.6474 134.473C65.7507 130.869 60.1623 128.308 54.2304 126.952C48.2986 125.596 42.1502 125.472 36.1685 126.59C30.1867 127.707 24.4996 130.041 19.4616 133.446C14.4235 136.851 10.1424 141.255 6.88484 146.383C3.62732 151.51 1.46321 157.252 0.527317 163.25C-0.408575 169.249 -0.0961975 175.375 1.44499 181.248C2.98618 187.12 5.72317 192.614 9.48545 197.385C7.51492 199.884 5.82016 202.587 4.43053 205.448L35.9915 221.804L2.3387 210.538C-0.0242288 217.505 -0.608184 224.951 0.639676 232.2C1.88754 239.45 4.92783 246.274 9.48544 252.056C4.34301 258.578 1.14405 266.411 0.254319 274.661C-0.635415 282.911 0.819981 291.243 4.45411 298.707C8.08824 306.17 13.7544 312.463 20.8048 316.865C27.8553 321.268 36.0054 323.603 44.3233 323.603C52.6413 323.603 60.7914 321.268 67.8418 316.865C74.8922 312.463 80.5584 306.17 84.1925 298.707C87.8266 291.243 89.282 282.911 88.3923 274.661C87.5026 266.411 84.3036 258.578 79.1612 252.056C85.3059 244.263 88.6466 234.636 88.6466 224.721C88.6466 214.806 85.306 205.178 79.1612 197.385Z" fill="#00C9F7" fill-opacity="0.1"/>
<path d="M5.23204e-05 224.721C-0.0152513 234.638 3.32708 244.27 9.48546 252.056C4.34302 258.578 1.14407 266.411 0.254335 274.661C-0.635398 282.911 0.819998 291.243 4.45413 298.707C8.08826 306.17 13.7544 312.463 20.8049 316.865C27.8553 321.268 36.0054 323.603 44.3233 323.603C52.6413 323.603 60.7914 321.268 67.8418 316.865C74.8922 312.463 80.5584 306.17 84.1925 298.707C87.8266 291.243 89.282 282.911 88.3923 274.661C87.5026 266.411 84.3036 258.578 79.1612 252.056C85.1019 244.534 5.23204e-05 219.758 5.23204e-05 224.721Z" fill="#00C9F7" fill-opacity="0.1"/>
<path d="M79.1612 197.385C80.4253 195.78 81.5768 194.089 82.6072 192.325L58.2935 188.342L84.5894 188.537C87.112 183.062 88.4882 177.132 88.6337 171.108C88.7792 165.084 87.6911 159.094 85.4359 153.505L50.1567 171.76L82.6923 147.904C79.6442 142.65 75.5441 138.078 70.6474 134.473C65.7507 130.869 60.1623 128.308 54.2304 126.952C48.2986 125.596 42.1502 125.472 36.1685 126.59C30.1867 127.707 24.4996 130.041 19.4616 133.446C14.4235 136.851 10.1424 141.255 6.88484 146.383C3.62732 151.51 1.46321 157.252 0.527317 163.25C-0.408575 169.249 -0.0961975 175.375 1.44499 181.248C2.98618 187.12 5.72317 192.614 9.48545 197.385C7.51492 199.884 5.82016 202.587 4.43053 205.448L35.9915 221.804L2.3387 210.538C-0.0242288 217.505 -0.608184 224.951 0.639676 232.2C1.88754 239.45 4.92783 246.274 9.48544 252.056C4.34301 258.578 1.14405 266.411 0.254319 274.661C-0.635415 282.911 0.819981 291.243 4.45411 298.707C8.08824 306.17 13.7544 312.463 20.8048 316.865C27.8553 321.268 36.0054 323.603 44.3233 323.603C52.6413 323.603 60.7914 321.268 67.8418 316.865C74.8922 312.463 80.5584 306.17 84.1925 298.707C87.8266 291.243 89.282 282.911 88.3923 274.661C87.5026 266.411 84.3036 258.578 79.1612 252.056C85.3059 244.263 88.6466 234.636 88.6466 224.721C88.6466 214.806 85.306 205.178 79.1612 197.385Z" fill="#57B894"/>
<path opacity="0.1" d="M5.23204e-05 224.721C-0.0152513 234.638 3.32708 244.27 9.48546 252.056C4.34302 258.578 1.14407 266.411 0.254335 274.661C-0.635398 282.911 0.819998 291.243 4.45413 298.707C8.08826 306.17 13.7544 312.463 20.8049 316.865C27.8553 321.268 36.0054 323.603 44.3233 323.603C52.6413 323.603 60.7914 321.268 67.8418 316.865C74.8922 312.463 80.5584 306.17 84.1925 298.707C87.8266 291.243 89.282 282.911 88.3923 274.661C87.5026 266.411 84.3036 258.578 79.1612 252.056C85.1019 244.534 5.23204e-05 219.758 5.23204e-05 224.721Z" fill="#0A1029"/>
<path d="M319.42 194.959L297.428 216.897L287.008 206.503L282.951 210.55L297.414 224.977L323.477 199.006L319.42 194.959Z" fill="#57B894"/>
<path d="M389.428 144.921L367.436 166.859L357.016 156.465L352.959 160.512L367.422 174.939L393.485 148.968L389.428 144.921Z" fill="#57B894"/>
</g>
<defs>
<clipPath id="clip0_717_4377">
<rect width="555" height="419" fill="white"/>
</clipPath>
</defs>
</svg>
