<svg width="183" height="61" viewBox="0 0 183 61" fill="none" xmlns="http://www.w3.org/2000/svg">
<path d="M10.1984 58.8154C7.02335 57.4155 4.53105 55.4312 2.71909 52.8601C0.904806 50.2889 0 47.2913 0 43.8623H10.369C10.5958 46.4334 11.6012 48.5474 13.3874 50.2041C15.1736 51.8608 17.68 52.688 20.9087 52.688C24.1375 52.688 26.859 51.875 28.727 50.2465C30.5974 48.6204 31.5326 46.5206 31.5326 43.9495C31.5326 41.951 30.9528 40.3226 29.7908 39.0665C28.6288 37.8104 27.1839 36.8394 25.4538 36.1536C23.7237 35.4679 21.3319 34.7255 18.2715 33.9266C14.4161 32.8991 11.2879 31.8574 8.87739 30.7993C6.46925 29.7435 4.41415 28.1009 2.71442 25.8739C1.01469 23.6468 0.16366 20.6774 0.16366 16.9633C0.16366 13.5367 1.01469 10.5367 2.71442 7.96554C4.41415 5.39441 6.79423 3.4266 9.85467 2.05501C12.9151 0.683434 16.4548 0 20.4785 0C26.202 0 30.892 1.44228 34.5463 4.32684C38.2006 7.2114 40.2276 11.1683 40.6228 16.1927H29.9147C29.744 14.0222 28.7247 12.1651 26.8543 10.6239C24.9839 9.08024 22.5196 8.30961 19.4592 8.30961C16.6816 8.30961 14.4138 9.02368 12.6603 10.4518C10.9044 11.88 10.0253 13.9373 10.0253 16.6216C10.0253 18.4504 10.5771 19.9492 11.683 21.1205C12.7889 22.2917 14.1893 23.2203 15.8891 23.9037C17.5888 24.5871 19.9128 25.3318 22.8586 26.1307C26.7678 27.2148 29.9545 28.3012 32.4211 29.3853C34.8853 30.4717 36.9825 32.1426 38.7103 34.3979C40.4381 36.6556 41.3031 39.6674 41.3031 43.4357C41.3031 46.4641 40.4942 49.318 38.881 52.0046C37.2654 54.6888 34.9134 56.8452 31.8249 58.4737C28.7364 60.1021 25.0961 60.9152 20.9017 60.9152C16.9341 60.9152 13.3664 60.2152 10.1913 58.8154H10.1984Z" fill="#003C55"/>
<path d="M95.1962 13.1055V60.3142H85.5075V54.7454C83.9785 56.6873 81.9795 58.2168 79.5153 59.3292C77.051 60.4439 74.4278 61 71.6526 61C67.9679 61 64.669 60.2294 61.7511 58.6858C58.8333 57.1445 56.5374 54.8609 54.8657 51.8326C53.194 48.8066 52.3594 45.1491 52.3594 40.867V13.1078H61.9639V39.4106C61.9639 43.6385 63.0113 46.8789 65.1085 49.1342C67.2057 51.3919 70.0674 52.5184 73.6936 52.5184C77.3199 52.5184 80.1956 51.3895 82.3209 49.1342C84.4461 46.8789 85.5075 43.6385 85.5075 39.4106V13.1078H95.1962V13.1055Z" fill="#003C55"/>
<path d="M123.29 14.3473C125.64 13.0064 128.431 12.3347 131.662 12.3347V22.4448H129.198C125.401 22.4448 122.525 23.4158 120.571 25.3577C118.616 27.2996 117.639 30.6696 117.639 35.4678V60.3141H107.95V13.1053H117.639V19.9585C119.056 17.5594 120.94 15.6906 123.292 14.3473H123.29Z" fill="#003C55"/>
<path d="M183 13.1055V60.3142H173.311V54.7454C171.78 56.6873 169.783 58.2168 167.319 59.3292C164.855 60.4439 162.234 61 159.456 61C155.772 61 152.473 60.2294 149.555 58.6858C146.635 57.1445 144.339 54.8609 142.669 51.8326C140.998 48.8066 140.163 45.1491 140.163 40.867V13.1078H149.768V39.4106C149.768 43.6385 150.815 46.8789 152.912 49.1342C155.007 51.3919 157.869 52.5184 161.497 52.5184C165.126 52.5184 167.999 51.3895 170.125 49.1342C172.25 46.8789 173.311 43.6385 173.311 39.4106V13.1078H183V13.1055Z" fill="#003C55"/>
<path d="M66.605 10.3858C68.8853 10.3858 70.7339 8.52243 70.7339 6.22389C70.7339 3.92535 68.8853 2.06201 66.605 2.06201C64.3246 2.06201 62.4761 3.92535 62.4761 6.22389C62.4761 8.52243 64.3246 10.3858 66.605 10.3858Z" fill="#20B7DD"/>
<path d="M80.708 10.3858C82.9883 10.3858 84.8369 8.52243 84.8369 6.22389C84.8369 3.92535 82.9883 2.06201 80.708 2.06201C78.4277 2.06201 76.5791 3.92535 76.5791 6.22389C76.5791 8.52243 78.4277 10.3858 80.708 10.3858Z" fill="#20B7DD"/>
<path d="M154.479 10.3858C156.759 10.3858 158.607 8.52243 158.607 6.22389C158.607 3.92535 156.759 2.06201 154.479 2.06201C152.198 2.06201 150.35 3.92535 150.35 6.22389C150.35 8.52243 152.198 10.3858 154.479 10.3858Z" fill="#20B7DD"/>
<path d="M168.584 10.3858C170.864 10.3858 172.713 8.52243 172.713 6.22389C172.713 3.92535 170.864 2.06201 168.584 2.06201C166.304 2.06201 164.455 3.92535 164.455 6.22389C164.455 8.52243 166.304 10.3858 168.584 10.3858Z" fill="#20B7DD"/>
</svg>
