<svg width="90" height="90" viewBox="0 0 90 90" fill="none" xmlns="http://www.w3.org/2000/svg">
<g clip-path="url(#clip0_669_354)">
<path d="M26.6761 44.2055H16.3427C15.8104 44.2055 15.3784 44.6374 15.3784 45.1697V55.6828C15.3784 56.2151 15.8104 56.647 16.3427 56.647C16.8751 56.647 17.307 56.2151 17.307 55.6828V46.1341H26.6761C27.2085 46.1341 27.6404 45.7021 27.6404 45.1697C27.6404 44.6374 27.2085 44.2055 26.6761 44.2055Z" fill="#003C55"/>
<path d="M16.3427 58.7677C15.8104 58.7677 15.3784 59.1996 15.3784 59.732V61.0392C15.3784 61.5714 15.8104 62.0034 16.3427 62.0034C16.8751 62.0034 17.307 61.5714 17.307 61.0392V59.732C17.307 59.1996 16.8751 58.7677 16.3427 58.7677Z" fill="#003C55"/>
<path d="M60.4062 12.9352C60.0546 13.3358 60.0948 13.946 60.4938 14.2962L74.6154 26.6863C75.015 27.0367 75.624 26.9995 75.9762 26.5984C76.3278 26.1979 76.2876 25.5877 75.8886 25.2374L61.767 12.8473C61.3668 12.4958 60.759 12.5334 60.4062 12.9352Z" fill="#003C55"/>
<path d="M56.7597 9.73855C56.4094 10.139 56.4496 10.748 56.8502 11.0996L57.439 11.6156C57.8459 11.9695 58.4517 11.9217 58.8 11.5252C59.1504 11.1247 59.1102 10.5157 58.7096 10.1642L58.1208 9.64813C57.7203 9.29911 57.1113 9.33673 56.7597 9.73855Z" fill="#003C55"/>
<path d="M42.6295 17.9389C38.3867 17.9389 34.9409 21.3975 34.9409 25.6403C34.9409 29.8704 38.3867 33.3161 42.6295 33.3161C46.8594 33.3161 50.3052 29.8704 50.3052 25.6403C50.3052 21.3975 46.8594 17.9389 42.6295 17.9389ZM42.6295 31.3875C39.4538 31.3875 36.8695 28.8032 36.8695 25.6403C36.8695 22.4517 39.4538 19.8675 42.6295 19.8675C45.7923 19.8675 48.3766 22.4517 48.3766 25.6403C48.3766 28.8032 45.7923 31.3875 42.6295 31.3875Z" fill="#0A1029"/>
<path d="M31.2637 68.4162C31.2637 68.9562 30.8266 69.3804 30.2994 69.3804H28.9494C28.4094 69.3804 27.9851 68.9562 27.9851 68.4162C27.9851 67.8888 28.4094 67.452 28.9494 67.452H30.2994C30.8266 67.452 31.2637 67.8888 31.2637 68.4162Z" fill="#0A1029"/>
<path d="M68.1917 58.1261H58.8151C58.2827 58.1261 57.8508 58.558 57.8508 59.0904C57.8508 59.6227 58.2827 60.0546 58.8151 60.0546H68.1917C68.7239 60.0546 69.1559 59.6227 69.1559 59.0904C69.1559 58.558 68.7239 58.1261 68.1917 58.1261Z" fill="#003C55"/>
<path d="M55.4943 58.1261H55.3021C54.7698 58.1261 54.3379 58.558 54.3379 59.0904C54.3379 59.6227 54.7698 60.0546 55.3021 60.0546H55.4943C56.0267 60.0546 56.4585 59.6227 56.4585 59.0904C56.4585 58.558 56.0267 58.1261 55.4943 58.1261Z" fill="#003C55"/>
<path d="M83.5927 63.2472H74.9911V41.0046H78.0379C80.8411 41.0046 82.1395 37.5332 80.0437 35.6946L44.6096 4.60605C43.4654 3.60324 41.7553 3.60324 40.6111 4.60605L25.6711 17.7333V13.7347H27.0853C27.9468 13.7347 28.6411 13.0404 28.6411 12.1918V7.52467C28.6411 6.67603 27.9468 5.98178 27.0853 5.98178H11.5024C10.6411 5.98178 9.9468 6.67603 9.9468 7.52467V12.1918C9.9468 13.0404 10.6411 13.7347 11.5024 13.7347H12.9296V28.9189L5.20249 35.6946C3.10676 37.546 4.41822 41.0046 7.20822 41.0046H10.2554V84.2178H6.8739C6.3468 84.2178 5.90964 84.642 5.90964 85.182C5.90964 85.7088 6.3468 86.1462 6.8739 86.1462H6.95106H83.5927C84.8269 86.1462 85.8295 85.1304 85.8295 83.8962V65.4846C85.8295 64.2504 84.8269 63.2472 83.5927 63.2472ZM11.8754 11.8061V7.91035H26.7125V11.8061H11.8754ZM23.7425 13.7347V19.4175L14.8582 27.2218V13.7347H23.7425ZM7.20822 39.076C6.19242 39.076 5.71674 37.8161 6.47532 37.1474L41.8839 6.05893C42.2953 5.69895 42.9253 5.69895 43.3367 6.05893L78.7711 37.1474C79.5295 37.8161 79.0669 39.076 78.0379 39.076H7.20822ZM22.8296 54.1575V84.2178H12.1839V41.0046H73.0627V63.2472H46.9625V54.1575C46.9625 52.2546 45.4067 50.6989 43.5039 50.6989H26.3011C24.3853 50.6989 22.8296 52.2546 22.8296 54.1575ZM45.0339 63.273C43.954 63.4272 43.1053 64.392 43.1053 65.4846C43.1182 73.1346 43.0796 83.832 43.1311 84.2178H24.7582V54.1575C24.7582 53.3218 25.4525 52.6275 26.301 52.6275H43.5039C44.3396 52.6275 45.0339 53.3218 45.0339 54.1575V63.273ZM83.9011 83.8962C83.9011 84.0762 83.7595 84.2178 83.5927 84.2178H45.3424C45.2524 84.2178 45.0467 84.0762 45.0467 83.9088V65.4846C45.0467 65.3178 45.2139 65.1762 45.3424 65.1762C46.0882 65.1888 73.2679 65.1762 83.5927 65.1762C83.7595 65.1762 83.9011 65.3178 83.9011 65.4846V83.8962Z" fill="#0A1029"/>
<path d="M43.5038 52.6275H26.301C25.4524 52.6275 24.7581 53.3218 24.7581 54.1575V84.2178H43.131C43.0795 83.832 43.1181 73.1346 43.1052 65.4846C43.1052 64.392 43.9539 63.4272 45.0338 63.273V54.1575C45.0338 53.3218 44.3395 52.6275 43.5038 52.6275ZM30.2995 69.3804H28.9495C28.4095 69.3804 27.9852 68.9562 27.9852 68.4162C27.9852 67.8888 28.4095 67.452 28.9495 67.452H30.2995C30.8267 67.452 31.2638 67.8888 31.2638 68.4162C31.2638 68.9562 30.8267 69.3804 30.2995 69.3804Z" fill="url(#paint0_linear_669_354)"/>
<path d="M11.8748 7.90973H26.7119V11.8054H11.8748V7.90973Z" fill="url(#paint1_linear_669_354)"/>
<path d="M23.7424 13.7346V19.4175L14.8582 27.2218V13.7346H23.7424Z" fill="url(#paint2_linear_669_354)"/>
<path d="M48.3767 25.6403C48.3767 28.8032 45.7925 31.3875 42.6296 31.3875C39.4539 31.3875 36.8696 28.8032 36.8696 25.6403C36.8696 22.4518 39.4539 19.8674 42.6296 19.8674C45.7925 19.8674 48.3767 22.4518 48.3767 25.6403Z" fill="#00C9F7" fill-opacity="0.1"/>
<path d="M53.0053 71.283C51.1281 71.283 49.5981 72.813 49.5981 74.6904C49.5981 76.5804 51.1281 78.1104 53.0053 78.1104C54.8953 78.1104 56.4124 76.5804 56.4124 74.6904C56.4124 72.813 54.8953 71.283 53.0053 71.283ZM53.0053 76.182C52.1953 76.182 51.5267 75.513 51.5267 74.6904C51.5267 73.8804 52.1953 73.212 53.0053 73.212C53.8282 73.212 54.4838 73.8804 54.4838 74.6904C54.4838 75.513 53.8282 76.182 53.0053 76.182Z" fill="#0A1029"/>
<path d="M54.4837 74.6904C54.4837 75.513 53.8281 76.182 53.0052 76.182C52.1952 76.182 51.5266 75.513 51.5266 74.6904C51.5266 73.8804 52.1952 73.212 53.0052 73.212C53.8281 73.212 54.4837 73.8804 54.4837 74.6904Z" fill="#00C9F7" fill-opacity="0.1"/>
<path d="M75.9295 71.283C74.0527 71.283 72.5227 72.813 72.5227 74.6904C72.5227 76.5804 74.0527 78.1104 75.9295 78.1104C77.8069 78.1104 79.3369 76.5804 79.3369 74.6904C79.3369 72.813 77.8069 71.283 75.9295 71.283ZM75.9295 76.182C75.1069 76.182 74.4511 75.513 74.4511 74.6904C74.4511 73.8804 75.1069 73.212 75.9295 73.212C76.7527 73.212 77.4079 73.8804 77.4079 74.6904C77.4079 75.513 76.7527 76.182 75.9295 76.182Z" fill="#0A1029"/>
<path d="M77.4077 74.6904C77.4077 75.513 76.7525 76.182 75.9293 76.182C75.1067 76.182 74.4509 75.513 74.4509 74.6904C74.4509 73.8804 75.1067 73.212 75.9293 73.212C76.7525 73.212 77.4077 73.8804 77.4077 74.6904Z" fill="#00C9F7" fill-opacity="0.1"/>
<path d="M64.4688 70.2246C65.436 70.2246 66.2232 71.0106 66.2232 71.9778C66.2232 72.51 66.6552 72.942 67.1874 72.942C67.7196 72.942 68.1516 72.51 68.1516 71.9778C68.1516 70.2834 66.9942 68.8674 65.4336 68.4408V67.725C65.4336 67.1928 65.0016 66.7608 64.4688 66.7608C63.9366 66.7608 63.5046 67.1928 63.5046 67.725V68.4408C61.944 68.8674 60.7866 70.2834 60.7866 71.9778C60.7866 74.0082 62.439 75.66 64.4688 75.66C65.436 75.66 66.2232 76.4472 66.2232 77.4144C66.2232 78.381 65.436 79.167 64.4688 79.167C63.5022 79.167 62.715 78.381 62.715 77.4144C62.715 76.8822 62.283 76.4502 61.7508 76.4502C61.2186 76.4502 60.7866 76.8822 60.7866 77.4144C60.7866 79.1088 61.944 80.5248 63.5046 80.9514V81.6672C63.5046 82.1994 63.9366 82.6314 64.4688 82.6314C65.0016 82.6314 65.4336 82.1994 65.4336 81.6672V80.9514C66.9942 80.5248 68.1516 79.1088 68.1516 77.4144C68.1516 75.384 66.4992 73.7316 64.4688 73.7316C63.5022 73.7316 62.715 72.9444 62.715 71.9778C62.715 71.0106 63.5022 70.2246 64.4688 70.2246Z" fill="#0A1029"/>
</g>
<defs>
<linearGradient id="paint0_linear_669_354" x1="34.896" y1="52.6275" x2="34.896" y2="84.2178" gradientUnits="userSpaceOnUse">
<stop stop-color="#DDDDDD" stop-opacity="0"/>
<stop offset="1" stop-color="#DDDDDD"/>
</linearGradient>
<linearGradient id="paint1_linear_669_354" x1="19.2933" y1="7.90973" x2="19.2933" y2="11.8054" gradientUnits="userSpaceOnUse">
<stop stop-color="#DDDDDD" stop-opacity="0"/>
<stop offset="1" stop-color="#DDDDDD"/>
</linearGradient>
<linearGradient id="paint2_linear_669_354" x1="19.3003" y1="13.7346" x2="19.3003" y2="27.2218" gradientUnits="userSpaceOnUse">
<stop stop-color="#DDDDDD" stop-opacity="0"/>
<stop offset="1" stop-color="#DDDDDD"/>
</linearGradient>
<clipPath id="clip0_669_354">
<rect width="90" height="90" fill="white"/>
</clipPath>
</defs>
</svg>
