<?xml version="1.0" encoding="UTF-8"?>
<svg id="Capa_1" data-name="Capa 1" xmlns="http://www.w3.org/2000/svg" viewBox="0 0 1080 1080">
  <defs>
    <style>
      .cls-1 {
        fill: none;
      }

      .cls-1, .cls-2, .cls-3, .cls-4, .cls-5 {
        stroke-width: 0px;
      }

      .cls-2 {
        fill: #003b54;
      }

      .cls-3 {
        fill: #fff;
      }

      .cls-4 {
        fill: #39beec;
      }

      .cls-5 {
        fill: #3bbfec;
      }
    </style>
  </defs>
  <rect class="cls-3" x="9.56" y="10.47" width="1060.88" height="1059.06" rx="133.28" ry="133.28"/>
  <g>
    <g>
      <path class="cls-1" d="M639.57,248.66c-30.01-22.65-69.56-33.98-118.66-33.98-44.56,0-80.94,10.5-109.11,31.46-28.2,20.98-42.28,51.19-42.28,90.61,0,26.86,8.87,48.89,26.6,66.07,17.73,17.21,40.24,30.83,67.51,40.9,18.49,6.82,41.59,14.04,69.27,21.63l154.77-142.81c-4.6-28.5-20.6-53.14-48.09-73.89Z"/>
      <path class="cls-2" d="M634.97,546.68h-146.31c-16.2,0-24.31-18.07-12.86-28.64l57.08-52.67c-27.68-7.6-50.77-14.81-69.27-21.63-27.28-10.07-49.78-23.7-67.51-40.9-17.73-17.19-26.6-39.21-26.6-66.07,0-39.43,14.09-69.63,42.28-90.61,28.17-20.96,64.55-31.46,109.11-31.46,49.1,0,88.65,11.33,118.66,33.98,27.49,20.75,43.49,45.4,48.09,73.89l126.71-116.91c-14.01-18.36-31.13-34.86-51.36-49.48-58.65-42.36-133.9-63.56-225.73-63.56-64.57,0-121.39,10.07-170.49,30.2-49.1,20.14-87.29,49.08-114.57,86.84-27.28,37.76-40.92,81.81-40.92,132.14,0,54.55,13.64,98.16,40.92,130.89,27.28,32.72,60.22,56.85,98.88,72.36,38.63,15.54,88.87,30.83,150.71,45.93,49.1,11.76,87.5,22.66,115.25,32.72,7.13,2.59,13.96,5.46,20.49,8.61v-83.25c0-1.31-1.15-2.38-2.58-2.38Z"/>
      <path class="cls-2" d="M637.55,960.56v-110.75c-25.63,11.18-56.78,16.78-93.46,16.78-51.83,0-92.06-12.15-120.7-36.5-28.64-24.33-44.8-55.37-48.42-93.13h-166.4c0,50.34,14.53,94.39,43.64,132.14,29.09,37.76,69.09,66.92,120.02,87.47,50.91,20.57,108.2,30.83,171.85,30.83,37.74,0,72.69-3.76,104.85-11.29-6.68-2.48-11.4-8.51-11.4-15.55Z"/>
      <path class="cls-5" d="M688.66,330.46h171.85c-4.17-48.35-19.56-89.96-46.16-124.82l-126.71,116.91c.42,2.61.78,5.24,1.01,7.91Z"/>
      <path class="cls-5" d="M832.55,856.52c25.91-39.43,38.87-81.37,38.87-125.85,0-55.38-13.88-99.62-41.6-132.77-27.75-33.13-61.38-57.68-100.93-73.62-39.55-15.93-90.7-31.88-153.44-47.82-15.24-3.78-29.42-7.48-42.58-11.09l-57.08,52.67c-11.46,10.57-3.34,28.64,12.86,28.64h146.31c1.42,0,2.58,1.06,2.58,2.38v83.25c18.86,9.09,35.22,20.48,49.07,34.18,18.63,18.46,27.96,42.37,27.96,71.73,0,37.75-15,68.59-45.01,92.5-9.49,7.56-20.17,13.92-32.02,19.09v110.75c0,7.05,4.72,13.07,11.4,15.55,25.18-5.89,48.65-14.08,70.41-24.58,49.55-23.91,87.29-55.57,113.2-95.01Z"/>
    </g>
    <circle class="cls-4" cx="816.42" cy="368.22" r="27.3"/>
    <circle class="cls-4" cx="740.04" cy="368.22" r="27.3"/>
  </g>
</svg>