<?xml version="1.0" encoding="UTF-8"?>
<svg id="Capa_1" data-name="Capa 1" xmlns="http://www.w3.org/2000/svg" viewBox="0 0 1080 1080">
  <defs>
    <style>
      .cls-1 {
        fill: none;
      }

      .cls-1, .cls-2, .cls-3, .cls-4, .cls-5 {
        stroke-width: 0px;
      }

      .cls-2 {
        fill: #3ebfec;
      }

      .cls-3 {
        fill: #003b54;
      }

      .cls-4 {
        fill: #39beec;
      }

      .cls-5 {
        fill: #3bbfec;
      }
    </style>
  </defs>
  <path class="cls-1" d="M357.27,326.62c-20.28-16.59-47.01-24.89-80.19-24.89-30.11,0-54.7,7.69-73.74,23.04-19.05,15.37-28.57,37.49-28.57,66.36,0,19.67,5.99,35.8,17.97,48.39,11.98,12.6,27.19,22.58,45.62,29.96,12.5,5,28.1,10.28,46.81,15.84l104.59-104.59c-3.11-20.87-13.92-38.92-32.5-54.12Z"/>
  <path class="cls-3" d="M354.17,544.89h-98.88c-10.95,0-16.43-13.24-8.69-20.98l38.58-38.58c-18.71-5.56-34.31-10.85-46.81-15.84-18.43-7.38-33.64-17.36-45.62-29.96-11.98-12.59-17.97-28.72-17.97-48.39,0-28.88,9.52-51,28.57-66.36,19.04-15.35,43.62-23.04,73.74-23.04,33.18,0,59.91,8.29,80.19,24.89,18.58,15.2,29.39,33.25,32.5,54.12l85.63-85.63c-9.47-13.45-21.04-25.53-34.71-36.24-39.63-31.02-90.49-46.55-152.54-46.55-43.64,0-82.03,7.37-115.21,22.12-33.18,14.75-58.99,35.95-77.42,63.6-18.44,27.65-27.65,59.91-27.65,96.78,0,39.95,9.22,71.89,27.65,95.86,18.43,23.96,40.7,41.63,66.82,53,26.11,11.38,60.05,22.58,101.85,33.64,33.18,8.61,59.13,16.59,77.88,23.96,4.82,1.9,9.43,4,13.85,6.31v-60.97c0-.96-.78-1.74-1.74-1.74Z"/>
  <path class="cls-3" d="M355.91,848.01v-81.11c-17.32,8.19-38.37,12.29-63.16,12.29-35.02,0-62.22-8.9-81.57-26.73-19.36-17.82-30.27-40.55-32.72-68.21h-112.45c0,36.87,9.82,69.13,29.49,96.78,19.66,27.65,46.69,49.01,81.11,64.06,34.41,15.07,73.12,22.58,116.14,22.58,25.5,0,49.12-2.76,70.86-8.27-4.51-1.82-7.7-6.23-7.7-11.39Z"/>
  <path class="cls-5" d="M390.45,386.54h116.14c-2.82-35.41-13.22-65.89-31.19-91.42l-85.63,85.63c.28,1.91.53,3.84.68,5.79Z"/>
  <path class="cls-5" d="M487.69,771.81c17.51-28.88,26.27-59.6,26.27-92.17,0-40.56-9.38-72.96-28.11-97.24-18.75-24.27-41.48-42.24-68.21-53.92-26.73-11.67-61.29-23.35-103.69-35.02-10.3-2.77-19.88-5.48-28.77-8.12l-38.58,38.58c-7.74,7.74-2.26,20.98,8.69,20.98h98.88c.96,0,1.74.78,1.74,1.74v60.97c12.75,6.65,23.8,15,33.16,25.03,12.59,13.52,18.89,31.03,18.89,52.54,0,27.65-10.14,50.23-30.42,67.74-6.41,5.54-13.63,10.19-21.64,13.98v81.11c0,5.16,3.19,9.57,7.7,11.39,17.01-4.31,32.87-10.31,47.58-18,33.48-17.51,58.99-40.7,76.5-69.59Z"/>
  <path class="cls-3" d="M1013.99,861.49l-158.54-265.45c50.38-12.28,87.71-35.48,111.99-69.59,24.27-34.1,36.41-72.04,36.41-113.83,0-35.63-8.45-67.89-25.35-96.78-16.91-28.88-42.4-51.92-76.5-69.13-34.1-17.2-75.74-25.81-124.89-25.81h-221.21v1.31c3.13,0,6.27,1.19,8.66,3.59l299.38,299.38c7.71,7.71,2.25,20.89-8.65,20.89h-98.47c-.96,0-1.73.78-1.73,1.73v81.62l133.57,232.07h125.35Z"/>
  <path class="cls-2" d="M756.81,546.06h98.47c10.9,0,16.36-13.18,8.65-20.89l-299.38-299.38c-2.39-2.39-5.52-3.59-8.66-3.59v637.97h105.08v-254.92h80.19l13.91,24.17v-81.62c0-.96.78-1.73,1.73-1.73Z"/>
  <circle class="cls-4" cx="781.86" cy="392.74" r="20.06"/>
  <circle class="cls-4" cx="741.73" cy="352.61" r="20.06"/>
</svg>